<svg  xmlns="http://www.w3.org/2000/svg" xmlns:xlink="http://www.w3.org/1999/xlink" width="939" height="200" viewBox="0 0 963 224"><path transform="translate(0 100)" d="M54.7,-67L89.4,-67L89.4,-22.5L54.7,-22.5L54.7,7.7L45,7.7L45,-22.5L10.5,-22.5L10.5,-67L45,-67L45,-84L54.7,-84L54.7,-67ZM20.1,-57.7L20.1,-31.8L45,-31.8L45,-57.7L20.1,-57.7ZM54.7,-31.8L79.8,-31.8L79.8,-57.7L54.7,-57.7L54.7,-31.8Z"></path><path transform="translate(100 100)" d="M92,7.6Q78.4,2.7 68.15,-2.6Q57.9,-7.9 50.1,-14.2Q42.5,-7.9 32.25,-2.5Q22,2.9 8.4,8.1L3.9,-1.5Q16.8,-5.9 26.35,-10.6Q35.9,-15.3 43,-20.7Q35.6,-28.3 30.5,-37.9Q25.4,-47.5 21.7,-60.1L6.4,-60.1L6.4,-69.3L46.1,-69.3Q43.8,-77.3 42,-82L52.2,-84.3Q54.2,-79.1 56.9,-69.3L93.3,-69.3L93.3,-60.1L77.7,-60.1Q74.3,-47.5 69.3,-37.85Q64.3,-28.2 57,-20.6Q64.2,-15.1 73.75,-10.6Q83.3,-6.1 96,-2.2L92,7.6ZM31.8,-60.1Q34.6,-49.7 39,-41.5Q43.4,-33.3 49.9,-26.8Q56.2,-33.3 60.4,-41.4Q64.6,-49.5 67.3,-60.1L31.8,-60.1Z"></path><path transform="translate(200 100)" d="M9.6,-79.6L90.3,-79.6L90.3,-7Q90.3,-1.1 88.95,1.75Q87.6,4.6 84.25,5.65Q80.9,6.7 74,6.7Q69.7,6.7 65.5,6.1L63.7,-2.8Q69.8,-2.1 75,-2.1Q78.5,-2.1 79.7,-3.6Q80.9,-5.1 80.9,-9.5L80.9,-70.6L18.9,-70.6L18.9,7.2L9.6,7.2L9.6,-79.6ZM26.3,-6.5L18.9,-11.7Q26.6,-22.6 33.1,-36.3Q26,-51 21.9,-58.3L29,-62.4Q31.4,-58.2 37.5,-46.3Q41.5,-55.9 44.2,-65.2L52,-62.5Q47.9,-49 42.5,-36.4L50.1,-21.2L42.4,-16.6L41.5,-18.5Q38.9,-24.2 37.8,-26.3Q32,-14.7 26.3,-6.5ZM72.8,-10.1Q68.9,-18.5 65,-26.1Q59.2,-15 51.4,-4.3L44.1,-9.4Q53.2,-21.4 60.2,-35.6Q54.5,-46.8 50.6,-53.4L57.6,-58.1L59.5,-54.6L64.6,-45.2Q68.5,-54.5 71.2,-63.8L78.9,-61.1Q75.3,-48.2 69.6,-35.5Q75.8,-23.5 80.2,-14.5L72.8,-10.1Z"></path><path transform="translate(300 100)" d="M17.4,-64.3L17.4,-50.8L7.9,-50.8L7.9,-73.3L46.1,-73.3Q44.3,-77.1 41.5,-82.3L51.7,-84.7Q55.4,-77.3 57.3,-73.3L92.2,-73.3L92.2,-50.7L82.5,-50.7L82.5,-64.3L17.4,-64.3ZM94.3,-29.2L94.3,-20.1L55.4,-20.1L55.4,-6.7Q55.4,-0.8 54.25,2Q53.1,4.8 50.25,5.85Q47.4,6.9 41.7,6.9Q36.7,6.9 29.7,6.2L27.8,-2.8Q34.6,-1.8 40.2,-1.7Q42.6,-1.7 43.75,-2.25Q44.9,-2.8 45.3,-4.35Q45.7,-5.9 45.7,-9.2L45.7,-20.1L5.4,-20.1L5.4,-29.2L45.7,-29.2L45.7,-35.3L62,-45.8L21.6,-45.8L21.6,-54.7L78.3,-54.7L78.3,-45.9L55.4,-31.6L55.4,-29.2L94.3,-29.2Z"></path><path transform="translate(400 100)" d="M27.3,-59.5Q18.1,-70.4 11.4,-77.9L18.8,-84Q29,-72.8 34.9,-65.9L27.3,-59.5ZM70.5,-51.9L95.4,-51.9L95.4,-42.3L70.5,-42.3L70.5,7.7L60.8,7.7L60.8,-42.3L35.9,-42.3L35.9,-51.9L60.8,-51.9L60.8,-83.8L70.5,-83.8L70.5,-51.9ZM27.2,-11.6L43.7,-24L46.9,-14.7L43.1,-12Q32.7,-4.7 25.9,0.7Q23.3,2.8 20.7,5.2L14.8,-1.9Q16.5,-3.3 17.05,-4.6Q17.6,-5.9 17.6,-8.1L17.6,-43.1L4.1,-43.1L4.1,-52.7L27.2,-52.7L27.2,-11.6Z"></path><path transform="translate(500 100)" d="M48,-22.1L56.2,-18.8L55.3,-14.7Q54.8,-12.7 54.3,-10.4Q53.8,-8.1 53.1,-5.7Q51.4,0.8 48.6,3.7Q45.8,6.6 41.6,6.6Q38.3,6.6 35.2,4.3Q32.1,2 28.6,-3.7Q26.6,-7.2 24.7,-12Q16.5,-5.4 7.5,-0L2.7,-8.1Q13.7,-14.6 21.9,-21.5Q19.3,-32 17.8,-49L5.2,-46.9L3.9,-55.8L17.1,-58L16.8,-63.9L16.1,-79.7L16,-83.7L25.1,-83.7Q25.3,-75.3 26,-63.1L26.2,-59.5L54.4,-64.3L55.6,-55.4L26.8,-50.5Q27.7,-37.8 29.5,-28.7Q38.4,-38 44.2,-49.1L51.4,-44.3Q42.9,-29.3 32,-18.6Q33.9,-12.6 36.5,-8.4Q38.1,-5.8 39.35,-4.8Q40.6,-3.8 41.8,-3.8Q43.2,-3.8 44.25,-5.25Q45.3,-6.7 46.1,-10.5Q47.5,-17.1 48,-22.1ZM81.3,-83.6L89.9,-83.6L89.9,-5.5Q89.9,-0.5 88.95,2.05Q88,4.6 85.55,5.7Q83.1,6.8 78.1,6.8Q71.7,6.8 67.1,6.3L65.4,-2.8Q71.2,-2 76.3,-2Q79.5,-2 80.4,-3.1Q81.3,-4.2 81.3,-7.8L81.3,-83.6ZM42.9,-63.3Q40.2,-66.5 36.35,-70.45Q32.5,-74.4 29.5,-77.1L34.7,-82.3Q37.8,-79.8 41.7,-76Q45.6,-72.2 48.5,-69L42.9,-63.3ZM61.7,-74.6L70.3,-74.6L70.3,-15.4L61.7,-15.4L61.7,-74.6Z"></path><path transform="translate(0 200)" d="M1.1,-73.2L57,-73.2L57,-63.7L34.4,-63.7L34.4,-0L23.6,-0L23.6,-63.7L1.1,-63.7L1.1,-73.2Z"></path><path transform="translate(58 200)" d="M47.25,-47.55Q52.3,-42 52.3,-31.7L52.3,-0L42,-0L42,-28.6Q42,-35.8 39.3,-39.7Q36.6,-43.6 31.1,-43.6Q25.5,-43.6 21.55,-39.65Q17.6,-35.7 17.6,-28.4L17.6,-0L7.3,-0L7.3,-76.1L17.6,-76.1L17.6,-44.4Q20.2,-48.7 24.45,-50.9Q28.7,-53.1 33.9,-53.1Q42.2,-53.1 47.25,-47.55Z"></path><path transform="translate(117 200)" d="M41.3,-49.95Q46.4,-46.8 49.2,-41.35Q52,-35.9 52,-29.1Q52,-26.8 51.5,-23.6L15.1,-23.6Q15.7,-15.8 19.9,-11.85Q24.1,-7.9 30.4,-7.9Q38.6,-7.9 42.3,-14.7L50,-10.2Q48,-4.8 42.4,-1.85Q36.8,1.1 29.9,1.1Q22.8,1.1 17,-2.05Q11.2,-5.2 7.75,-11.4Q4.3,-17.6 4.3,-26.2Q4.3,-34.6 7.75,-40.7Q11.2,-46.8 16.95,-49.95Q22.7,-53.1 29.4,-53.1Q36.2,-53.1 41.3,-49.95ZM20.15,-40.85Q16.4,-37.6 15.4,-31.4L41.2,-31.4Q40.8,-37.4 37.5,-40.75Q34.2,-44.1 29,-44.1Q23.9,-44.1 20.15,-40.85Z"></path><path transform="translate(172 200)" d=""></path><path transform="translate(199 200)" d="M31.8,-73.2Q39.6,-73.2 45.7,-70.3Q51.8,-67.4 55.15,-62.1Q58.5,-56.8 58.5,-50Q58.5,-43.2 55.15,-37.95Q51.8,-32.7 45.75,-29.8Q39.7,-26.9 31.8,-26.9L19.1,-26.9L19.1,-0L8.4,-0L8.4,-73.2L31.8,-73.2ZM30.5,-36.2Q38.4,-36.2 42.75,-39.95Q47.1,-43.7 47.1,-50Q47.1,-56.3 42.75,-60.1Q38.4,-63.9 30.5,-63.9L19.1,-63.9L19.1,-36.2L30.5,-36.2Z"></path><path transform="translate(260 200)" d="M35.85,-52.4Q38.1,-51.7 39.4,-50.5L35.5,-42.4Q33.2,-43.8 30.4,-43.8Q24.7,-43.8 21.15,-39.1Q17.6,-34.4 17.6,-25.7L17.6,-0L7.3,-0L7.3,-51.9L16.4,-51.9Q16.6,-47.1 17,-43.5Q19.3,-48.3 22.85,-50.7Q26.4,-53.1 31,-53.1Q33.6,-53.1 35.85,-52.4Z"></path><path transform="translate(296 200)" d="M7.8,-40.1Q11.3,-46.3 17.15,-49.7Q23,-53.1 29.8,-53.1Q36.5,-53.1 42.3,-49.7Q48.1,-46.3 51.6,-40.1Q55.1,-33.9 55.1,-26Q55.1,-18.1 51.6,-11.9Q48.1,-5.7 42.3,-2.3Q36.5,1.1 29.8,1.1Q23,1.1 17.15,-2.3Q11.3,-5.7 7.8,-11.9Q4.3,-18.1 4.3,-26Q4.3,-33.9 7.8,-40.1ZM19.25,-13Q23.4,-8.2 29.7,-8.2Q36.1,-8.2 40.2,-13Q44.3,-17.8 44.3,-26Q44.3,-34.2 40.15,-39Q36,-43.8 29.7,-43.8Q23.4,-43.8 19.25,-39Q15.1,-34.2 15.1,-26Q15.1,-17.8 19.25,-13Z"></path><path transform="translate(355 200)" d="M7.8,-62.3Q5.9,-64.3 5.9,-67Q5.9,-69.7 7.8,-71.65Q9.7,-73.6 12.3,-73.6Q15.1,-73.6 17,-71.65Q18.9,-69.7 18.9,-67Q18.9,-64.3 16.95,-62.3Q15,-60.3 12.3,-60.3Q9.7,-60.3 7.8,-62.3ZM-7.45,23.2Q-10.8,22 -12.9,19.6L-7,12.3Q-5.6,13.8 -4.2,14.45Q-2.8,15.1 -1.1,15.1Q7.3,15.1 7.3,2.8L7.3,-51.9L17.6,-51.9L17.6,3.4Q17.6,10.6 15,15.3Q12.4,20 8.3,22.2Q4.2,24.4 -0.6,24.4Q-4.1,24.4 -7.45,23.2Z"></path><path transform="translate(380 200)" d="M41.3,-49.95Q46.4,-46.8 49.2,-41.35Q52,-35.9 52,-29.1Q52,-26.8 51.5,-23.6L15.1,-23.6Q15.7,-15.8 19.9,-11.85Q24.1,-7.9 30.4,-7.9Q38.6,-7.9 42.3,-14.7L50,-10.2Q48,-4.8 42.4,-1.85Q36.8,1.1 29.9,1.1Q22.8,1.1 17,-2.05Q11.2,-5.2 7.75,-11.4Q4.3,-17.6 4.3,-26.2Q4.3,-34.6 7.75,-40.7Q11.2,-46.8 16.95,-49.95Q22.7,-53.1 29.4,-53.1Q36.2,-53.1 41.3,-49.95ZM20.15,-40.85Q16.4,-37.6 15.4,-31.4L41.2,-31.4Q40.8,-37.4 37.5,-40.75Q34.2,-44.1 29,-44.1Q23.9,-44.1 20.15,-40.85Z"></path><path transform="translate(435 200)" d="M40.8,-14.7L48.7,-10.1Q46,-4.5 41.05,-1.7Q36.1,1.1 29.7,1.1Q22.7,1.1 16.9,-2.2Q11.1,-5.5 7.7,-11.65Q4.3,-17.8 4.3,-26Q4.3,-34.2 7.7,-40.35Q11.1,-46.5 16.9,-49.8Q22.7,-53.1 29.7,-53.1Q36.1,-53.1 41.05,-50.3Q46,-47.5 48.7,-41.9L40.8,-37.3Q36.6,-43.7 29.6,-43.7Q23.1,-43.7 19.1,-38.95Q15.1,-34.2 15.1,-26Q15.1,-17.7 19.1,-12.95Q23.1,-8.2 29.6,-8.2Q36.6,-8.2 40.8,-14.7Z"></path><path transform="translate(487 200)" d="M38.1,-2.1Q33.7,1.1 26.4,1.1Q19,1.1 14.35,-3Q9.7,-7.1 9.7,-17.6L9.7,-43.1L0.9,-43.1L0.9,-51.9L9.7,-51.9L9.7,-66.9L19.9,-66.9L19.9,-51.9L35.2,-51.9L35.2,-43.1L19.9,-43.1L19.9,-19Q19.9,-8.2 27.9,-8.2Q31.5,-8.2 34.6,-10.1L38.1,-2.1Z"></path><path transform="translate(526 200)" d=""></path><path transform="translate(553 200)" d="M8.4,-73.2L54.2,-73.2L54.2,-63.7L19.1,-63.7L19.1,-41L50.5,-41L50.5,-31.5L19.1,-31.5L19.1,-0L8.4,-0L8.4,-73.2Z"></path><path transform="translate(607 200)" d="M7.8,-40.1Q11.3,-46.3 17.15,-49.7Q23,-53.1 29.8,-53.1Q36.5,-53.1 42.3,-49.7Q48.1,-46.3 51.6,-40.1Q55.1,-33.9 55.1,-26Q55.1,-18.1 51.6,-11.9Q48.1,-5.7 42.3,-2.3Q36.5,1.1 29.8,1.1Q23,1.1 17.15,-2.3Q11.3,-5.7 7.8,-11.9Q4.3,-18.1 4.3,-26Q4.3,-33.9 7.8,-40.1ZM19.25,-13Q23.4,-8.2 29.7,-8.2Q36.1,-8.2 40.2,-13Q44.3,-17.8 44.3,-26Q44.3,-34.2 40.15,-39Q36,-43.8 29.7,-43.8Q23.4,-43.8 19.25,-39Q15.1,-34.2 15.1,-26Q15.1,-17.8 19.25,-13Z"></path><path transform="translate(666 200)" d="M35.85,-52.4Q38.1,-51.7 39.4,-50.5L35.5,-42.4Q33.2,-43.8 30.4,-43.8Q24.7,-43.8 21.15,-39.1Q17.6,-34.4 17.6,-25.7L17.6,-0L7.3,-0L7.3,-51.9L16.4,-51.9Q16.6,-47.1 17,-43.5Q19.3,-48.3 22.85,-50.7Q26.4,-53.1 31,-53.1Q33.6,-53.1 35.85,-52.4Z"></path><path transform="translate(705 200)" d=""></path><path transform="translate(731 200)" d="M53.9,-73.3L71,-17.7L86.7,-73.2L97.1,-73.2L74.7,-0L66.3,-0L49.2,-53.8L32.7,-0L24.4,-0L0.8,-73.2L12.1,-73.2L29.1,-17.7L45,-73.3L53.9,-73.3Z"></path><path transform="translate(823 200)" d="M41.3,-49.95Q46.4,-46.8 49.2,-41.35Q52,-35.9 52,-29.1Q52,-26.8 51.5,-23.6L15.1,-23.6Q15.7,-15.8 19.9,-11.85Q24.1,-7.9 30.4,-7.9Q38.6,-7.9 42.3,-14.7L50,-10.2Q48,-4.8 42.4,-1.85Q36.8,1.1 29.9,1.1Q22.8,1.1 17,-2.05Q11.2,-5.2 7.75,-11.4Q4.3,-17.6 4.3,-26.2Q4.3,-34.6 7.75,-40.7Q11.2,-46.8 16.95,-49.95Q22.7,-53.1 29.4,-53.1Q36.2,-53.1 41.3,-49.95ZM20.15,-40.85Q16.4,-37.6 15.4,-31.4L41.2,-31.4Q40.8,-37.4 37.5,-40.75Q34.2,-44.1 29,-44.1Q23.9,-44.1 20.15,-40.85Z"></path><path transform="translate(878 200)" d="M45.45,-49.85Q50.7,-46.6 53.9,-40.45Q57.1,-34.3 57.1,-26Q57.1,-17.6 53.9,-11.45Q50.7,-5.3 45.45,-2.1Q40.2,1.1 34.2,1.1Q29,1.1 24.4,-1.3Q19.8,-3.7 17,-8.5Q16.6,-4.6 16.4,-0L7.3,-0L7.3,-76.1L17.6,-76.1L17.6,-44.3Q20.4,-48.7 24.75,-50.9Q29.1,-53.1 34.2,-53.1Q40.2,-53.1 45.45,-49.85ZM42.55,-12.85Q46.4,-17.6 46.4,-26Q46.4,-34.3 42.6,-38.95Q38.8,-43.6 32.4,-43.6Q26.3,-43.6 21.95,-39.3Q17.6,-35 17.6,-26Q17.6,-16.9 21.95,-12.5Q26.3,-8.1 32.4,-8.1Q38.7,-8.1 42.55,-12.85Z"></path></svg>