<svg  xmlns="http://www.w3.org/2000/svg" xmlns:xlink="http://www.w3.org/1999/xlink" width="905" height="200" viewBox="0 0 929 224"><path transform="translate(0 100)" d="M52.6,-64.3L87.9,-64.3L87.9,-23.9L52.6,-23.9L52.6,7.4L47.1,7.4L47.1,-23.9L12,-23.9L12,-64.3L47.1,-64.3L47.1,-84.1L52.6,-84.1L52.6,-64.3ZM17.3,-59.1L17.3,-29.2L47.1,-29.2L47.1,-59.1L17.3,-59.1ZM52.6,-29.2L82.5,-29.2L82.5,-59.1L52.6,-59.1L52.6,-29.2Z"></path><path transform="translate(100 100)" d="M93.2,6.6Q78.8,1.3 68.25,-4.3Q57.7,-9.9 49.9,-16.6Q42.1,-9.9 31.6,-4.1Q21.1,1.7 7.1,7.1L4.6,1.9Q18.3,-3.2 28.45,-8.6Q38.6,-14 46,-20.2Q37.8,-28.2 32.35,-38.5Q26.9,-48.8 23.2,-62.5L6.6,-62.5L6.6,-67.8L49.1,-67.8Q46.9,-75.2 43.9,-82.9L49.3,-84.4Q52.2,-77 54.9,-67.8L93.1,-67.8L93.1,-62.5L76.2,-62.5Q72.8,-48.9 67.45,-38.65Q62.1,-28.4 53.8,-20.2Q61.3,-13.9 71.5,-8.65Q81.7,-3.4 95.4,1.3L93.2,6.6ZM28.9,-62.5Q32.2,-50 37.25,-40.6Q42.3,-31.2 49.9,-23.7Q57.5,-31.2 62.4,-40.65Q67.3,-50.1 70.4,-62.5L28.9,-62.5Z"></path><path transform="translate(200 100)" d="M11.2,-78L88.6,-78L88.6,-7Q88.6,-1.7 87.4,1Q86.2,3.7 83.2,4.7Q80.2,5.7 74.1,5.7Q70.1,5.7 65.1,5.2L64.1,-0Q68.5,0.6 73.2,0.6Q77.5,0.6 79.55,0Q81.6,-0.6 82.4,-2.45Q83.2,-4.3 83.2,-8.4L83.2,-72.8L16.5,-72.8L16.5,6.4L11.2,6.4L11.2,-78ZM44.4,-15.9L37.1,-30.8Q30.7,-17.3 23.7,-7.1L19.5,-10Q27.6,-21.9 34.3,-36.4Q25.9,-53.3 22,-60.1L26.2,-62.5Q30.2,-55.2 36.9,-42.2Q41.9,-54 45.3,-65L49.9,-63.4Q45.4,-49.1 39.8,-36.6L48.8,-18.5L44.4,-15.9ZM75.3,-10Q70.8,-19.2 64.8,-30.7Q58.3,-17.7 49.9,-6L45.7,-8.9Q54.8,-21.4 62,-36.1Q54.3,-50.6 51,-56.1L55.2,-58.8L64.6,-41.7Q69.7,-53.2 72.9,-64.1L77.5,-62.5Q73.4,-48.6 67.5,-36.1Q75.2,-21.6 79.6,-12.5L75.3,-10Z"></path><path transform="translate(300 100)" d="M14.8,-65.9L14.8,-50.8L9.5,-50.8L9.5,-70.9L48.9,-70.9L43.1,-82.5L48.5,-84.1L55.1,-70.9L90.4,-70.9L90.4,-50.8L85,-50.8L85,-65.9L14.8,-65.9ZM94.3,-27.7L94.3,-22.6L53.1,-22.6L53.1,-6.5Q53.1,-1.2 52.1,1.4Q51.1,4 48.6,5Q46.1,6 41.1,6Q37.1,6 29.3,5.2L28.3,0.1Q35.1,1 39.5,1Q43.1,1 44.75,0.4Q46.4,-0.2 47.05,-2Q47.7,-3.8 47.7,-7.8L47.7,-22.6L5.4,-22.6L5.4,-27.7L47.7,-27.7L47.7,-34.4L68.5,-48L21.3,-48L21.3,-53.1L77.8,-53.1L77.8,-48.1L53.1,-32.1L53.1,-27.7L94.3,-27.7Z"></path><path transform="translate(400 100)" d="M67.9,-49.5L95.6,-49.5L95.6,-44L67.9,-44L67.9,7L62.5,7L62.5,-44L35,-44L35,-49.5L62.5,-49.5L62.5,-84L67.9,-84L67.9,-49.5ZM29.4,-60.4Q25.6,-65 17.5,-74.3L13.1,-79.5L17.2,-83L20.8,-78.9Q23.6,-75.6 27.05,-71.7Q30.5,-67.8 33.6,-64.1L29.4,-60.4ZM24.8,-6.7Q35.9,-14.8 44.8,-21.6L46.8,-16.5Q42,-13.1 35.6,-8.45Q29.2,-3.8 24.5,-0.2Q22.5,1.4 20.3,3.8L16.8,-0.2Q18.4,-1.5 18.9,-2.45Q19.4,-3.4 19.4,-4.9L19.4,-45.7L4.5,-45.7L4.5,-51.1L24.8,-51.1L24.8,-6.7Z"></path><path transform="translate(500 100)" d="M55.2,-57.4L24.4,-52.1Q25.7,-35.5 28.3,-24.5Q38.4,-35.2 45.4,-49.5L49.5,-46.9Q41.1,-30.3 29.8,-18.7Q32.2,-10.5 35.6,-5.6Q39.3,-0.4 42.6,-0.4Q44.4,-0.4 45.65,-2.2Q46.9,-4 47.8,-8.6Q48.9,-13.5 49.9,-21.1L54.7,-19.3Q52.8,-9.6 52,-6.1Q50.5,0.1 48.2,2.75Q45.9,5.4 42.5,5.4Q39.7,5.4 37,3.5Q34.3,1.6 31.2,-3Q28.1,-7.6 25.7,-14.8Q17.1,-7 6.3,-0.4L3.6,-5Q15.5,-12.2 24,-20.2Q21,-31.6 19.2,-51.3L4.9,-48.8L4.1,-53.8L18.8,-56.3L18.3,-64.2Q17.8,-73.4 17.5,-83.8L22.6,-83.8Q22.9,-73.9 23.6,-63.9L24,-57.2L54.5,-62.5L55.2,-57.4ZM83.3,-83.7L88.2,-83.7L88.2,-5.2Q88.2,-0.8 87.4,1.45Q86.6,3.7 84.5,4.6Q82.4,5.5 78.2,5.6Q71.5,5.6 67.1,5L66.2,-0.2Q71.1,0.6 77.3,0.6Q79.9,0.6 81.15,0.05Q82.4,-0.5 82.85,-1.9Q83.3,-3.3 83.3,-6.2L83.3,-83.7ZM43.1,-63.9Q40.3,-67.1 36.3,-71.1Q32.3,-75.1 29,-78L32,-81.1Q38.8,-75.2 46.4,-67.3L43.1,-63.9ZM63.4,-74.1L68.3,-74.1L68.3,-15.4L63.4,-15.4L63.4,-74.1Z"></path><path transform="translate(0 200)" d="M1.5,-73.2L53.3,-73.2L53.3,-67.9L30.3,-67.9L30.3,-0L24.4,-0L24.4,-67.9L1.5,-67.9L1.5,-73.2Z"></path><path transform="translate(55 200)" d="M44.3,-47.8Q49.3,-42.5 49.3,-32.6L49.3,-0L43.6,-0L43.6,-31.1Q43.6,-39.1 40.05,-43.4Q36.5,-47.7 30.2,-47.7Q26,-47.7 22.35,-45.75Q18.7,-43.8 16.45,-39.9Q14.2,-36 14.2,-30.5L14.2,-0L8.6,-0L8.6,-76.1L14.2,-76.1L14.2,-42.6Q16.6,-47.6 21.15,-50.35Q25.7,-53.1 31.4,-53.1Q39.3,-53.1 44.3,-47.8Z"></path><path transform="translate(112 200)" d="M40.05,-50Q44.8,-46.9 47.35,-41.65Q49.9,-36.4 49.9,-30Q49.9,-27.9 49.6,-25.6L11.4,-25.6Q11.8,-15.3 16.85,-9.8Q21.9,-4.3 30,-4.3Q34.5,-4.3 38.05,-6.2Q41.6,-8.1 43.6,-11.9L48,-9.4Q45.9,-4.4 40.85,-1.7Q35.8,1 29.7,1Q23,1 17.5,-2.25Q12,-5.5 8.75,-11.7Q5.5,-17.9 5.5,-26.4Q5.5,-34.6 8.65,-40.65Q11.8,-46.7 17.15,-49.9Q22.5,-53.1 28.9,-53.1Q35.3,-53.1 40.05,-50ZM17.3,-43.3Q12.6,-38.7 11.7,-30.3L43.8,-30.3Q43.8,-38.2 39.75,-43.05Q35.7,-47.9 28.7,-47.9Q22,-47.9 17.3,-43.3Z"></path><path transform="translate(166 200)" d=""></path><path transform="translate(193 200)" d="M28.9,-73.2Q36.3,-73.2 42.05,-70.5Q47.8,-67.8 51.05,-62.85Q54.3,-57.9 54.3,-51.4Q54.3,-44.9 51.1,-39.95Q47.9,-35 42.1,-32.3Q36.3,-29.6 28.9,-29.6L15.3,-29.6L15.3,-0L9.3,-0L9.3,-73.2L28.9,-73.2ZM28.2,-34.9Q37.4,-34.9 42.7,-39.35Q48,-43.8 48,-51.4Q48,-58.9 42.7,-63.45Q37.4,-68 28.2,-68L15.3,-68L15.3,-34.9L28.2,-34.9Z"></path><path transform="translate(250 200)" d="M34.8,-51.2L32.6,-46.6Q30.9,-47.7 28,-47.7Q22.1,-47.7 18.15,-42.75Q14.2,-37.8 14.2,-28.7L14.2,-0L8.6,-0L8.6,-52L13.5,-52Q13.8,-44.1 13.9,-42.3Q15.9,-47.5 19.6,-50.3Q23.3,-53.1 28.1,-53.1Q32.4,-53.1 34.8,-51.2Z"></path><path transform="translate(282 200)" d="M8.75,-40Q12,-46.2 17.5,-49.65Q23,-53.1 29.4,-53.1Q35.8,-53.1 41.25,-49.7Q46.7,-46.3 50,-40.1Q53.3,-33.9 53.3,-26Q53.3,-18.2 50,-12.05Q46.7,-5.9 41.25,-2.45Q35.8,1 29.4,1Q23,1 17.5,-2.4Q12,-5.8 8.75,-12Q5.5,-18.2 5.5,-26Q5.5,-33.8 8.75,-40ZM13.8,-14.6Q16.2,-9.7 20.35,-7.05Q24.5,-4.4 29.4,-4.4Q34.4,-4.4 38.45,-7.05Q42.5,-9.7 44.9,-14.6Q47.3,-19.5 47.3,-26Q47.3,-32.5 44.9,-37.45Q42.5,-42.4 38.45,-45.05Q34.4,-47.7 29.4,-47.7Q24.5,-47.7 20.35,-45.05Q16.2,-42.4 13.8,-37.45Q11.4,-32.5 11.4,-26Q11.4,-19.5 13.8,-14.6Z"></path><path transform="translate(341 200)" d="M8.5,-64.75Q7.3,-66 7.3,-67.7Q7.3,-69.4 8.5,-70.7Q9.7,-72 11.4,-72Q13.1,-72 14.35,-70.7Q15.6,-69.4 15.6,-67.7Q15.6,-66 14.4,-64.75Q13.2,-63.5 11.4,-63.5Q9.7,-63.5 8.5,-64.75ZM-6.2,23.4Q-8.8,22.4 -10.4,20.5L-7,16.4Q-4.5,19.1 -0.8,19.1Q8.6,19.1 8.6,5.1L8.6,-52L14.3,-52L14.3,5.4Q14.3,15.1 10.05,19.75Q5.8,24.4 -0.7,24.4Q-3.6,24.4 -6.2,23.4Z"></path><path transform="translate(364 200)" d="M40.05,-50Q44.8,-46.9 47.35,-41.65Q49.9,-36.4 49.9,-30Q49.9,-27.9 49.6,-25.6L11.4,-25.6Q11.8,-15.3 16.85,-9.8Q21.9,-4.3 30,-4.3Q34.5,-4.3 38.05,-6.2Q41.6,-8.1 43.6,-11.9L48,-9.4Q45.9,-4.4 40.85,-1.7Q35.8,1 29.7,1Q23,1 17.5,-2.25Q12,-5.5 8.75,-11.7Q5.5,-17.9 5.5,-26.4Q5.5,-34.6 8.65,-40.65Q11.8,-46.7 17.15,-49.9Q22.5,-53.1 28.9,-53.1Q35.3,-53.1 40.05,-50ZM17.3,-43.3Q12.6,-38.7 11.7,-30.3L43.8,-30.3Q43.8,-38.2 39.75,-43.05Q35.7,-47.9 28.7,-47.9Q22,-47.9 17.3,-43.3Z"></path><path transform="translate(418 200)" d="M42.5,-12.2L47,-9.6Q44.5,-4.3 39.85,-1.65Q35.2,1 29.4,1Q22.7,1 17.25,-2.4Q11.8,-5.8 8.65,-11.95Q5.5,-18.1 5.5,-26.1Q5.5,-34.1 8.65,-40.25Q11.8,-46.4 17.25,-49.75Q22.7,-53.1 29.4,-53.1Q35.2,-53.1 39.9,-50.45Q44.6,-47.8 47,-42.5L42.5,-39.9Q38.4,-47.7 29.3,-47.7Q24.1,-47.7 20.05,-45.1Q16,-42.5 13.7,-37.6Q11.4,-32.7 11.4,-26.1Q11.4,-19.5 13.7,-14.6Q16,-9.7 20.05,-7.05Q24.1,-4.4 29.3,-4.4Q38.4,-4.4 42.5,-12.2Z"></path><path transform="translate(469 200)" d="M33.2,-1.6Q29.4,1 24,1Q17.8,1 14.1,-2.55Q10.4,-6.1 10.4,-14.9L10.4,-47.2L1.8,-47.2L1.8,-52.1L10.4,-52.1L10.4,-66.5L16.1,-66.5L16.1,-52.1L30.8,-52.1L30.8,-47.2L16.1,-47.2L16.1,-15.6Q16.1,-9.5 18.3,-6.95Q20.5,-4.4 24.5,-4.4Q28,-4.4 31.3,-6.2L33.2,-1.6Z"></path><path transform="translate(504 200)" d=""></path><path transform="translate(531 200)" d="M9.3,-73.2L51.5,-73.2L51.5,-67.9L15.3,-67.9L15.3,-39.1L47.9,-39.1L47.9,-33.8L15.3,-33.8L15.3,-0L9.3,-0L9.3,-73.2Z"></path><path transform="translate(582 200)" d="M8.75,-40Q12,-46.2 17.5,-49.65Q23,-53.1 29.4,-53.1Q35.8,-53.1 41.25,-49.7Q46.7,-46.3 50,-40.1Q53.3,-33.9 53.3,-26Q53.3,-18.2 50,-12.05Q46.7,-5.9 41.25,-2.45Q35.8,1 29.4,1Q23,1 17.5,-2.4Q12,-5.8 8.75,-12Q5.5,-18.2 5.5,-26Q5.5,-33.8 8.75,-40ZM13.8,-14.6Q16.2,-9.7 20.35,-7.05Q24.5,-4.4 29.4,-4.4Q34.4,-4.4 38.45,-7.05Q42.5,-9.7 44.9,-14.6Q47.3,-19.5 47.3,-26Q47.3,-32.5 44.9,-37.45Q42.5,-42.4 38.45,-45.05Q34.4,-47.7 29.4,-47.7Q24.5,-47.7 20.35,-45.05Q16.2,-42.4 13.8,-37.45Q11.4,-32.5 11.4,-26Q11.4,-19.5 13.8,-14.6Z"></path><path transform="translate(641 200)" d="M34.8,-51.2L32.6,-46.6Q30.9,-47.7 28,-47.7Q22.1,-47.7 18.15,-42.75Q14.2,-37.8 14.2,-28.7L14.2,-0L8.6,-0L8.6,-52L13.5,-52Q13.8,-44.1 13.9,-42.3Q15.9,-47.5 19.6,-50.3Q23.3,-53.1 28.1,-53.1Q32.4,-53.1 34.8,-51.2Z"></path><path transform="translate(676 200)" d=""></path><path transform="translate(702 200)" d="M50.5,-73.3L69.9,-9.9L88.2,-73.2L94,-73.2L72,-0L67.1,-0L47.8,-62.1L29.1,-0L24.3,-0L1.4,-73.2L7.8,-73.2L27,-9.9L45.4,-73.3L50.5,-73.3Z"></path><path transform="translate(791 200)" d="M40.05,-50Q44.8,-46.9 47.35,-41.65Q49.9,-36.4 49.9,-30Q49.9,-27.9 49.6,-25.6L11.4,-25.6Q11.8,-15.3 16.85,-9.8Q21.9,-4.3 30,-4.3Q34.5,-4.3 38.05,-6.2Q41.6,-8.1 43.6,-11.9L48,-9.4Q45.9,-4.4 40.85,-1.7Q35.8,1 29.7,1Q23,1 17.5,-2.25Q12,-5.5 8.75,-11.7Q5.5,-17.9 5.5,-26.4Q5.5,-34.6 8.65,-40.65Q11.8,-46.7 17.15,-49.9Q22.5,-53.1 28.9,-53.1Q35.3,-53.1 40.05,-50ZM17.3,-43.3Q12.6,-38.7 11.7,-30.3L43.8,-30.3Q43.8,-38.2 39.75,-43.05Q35.7,-47.9 28.7,-47.9Q22,-47.9 17.3,-43.3Z"></path><path transform="translate(845 200)" d="M43.4,-49.9Q48.5,-46.7 51.55,-40.55Q54.6,-34.4 54.6,-26.1Q54.6,-17.7 51.55,-11.55Q48.5,-5.4 43.4,-2.2Q38.3,1 32.3,1Q26.3,1 21.3,-2.25Q16.3,-5.5 13.9,-11.6Q13.7,-8.7 13.5,-0L8.6,-0L8.6,-76L14.2,-76L14.2,-41.1Q16.7,-47 21.55,-50.05Q26.4,-53.1 32.3,-53.1Q38.3,-53.1 43.4,-49.9ZM40.4,-6.9Q44.3,-9.4 46.5,-14.3Q48.7,-19.2 48.7,-26.1Q48.7,-32.9 46.5,-37.8Q44.3,-42.7 40.4,-45.2Q36.5,-47.7 31.6,-47.7Q27.2,-47.7 23.25,-45.55Q19.3,-43.4 16.75,-38.55Q14.2,-33.7 14.2,-26.1Q14.2,-18.5 16.75,-13.6Q19.3,-8.7 23.25,-6.55Q27.2,-4.4 31.6,-4.4Q36.5,-4.4 40.4,-6.9Z"></path></svg>